<svg width="149" height="25" viewBox="0 0 149 25" fill="none" xmlns="http://www.w3.org/2000/svg">
<path d="M4.04994 21.4466L10.0636 20.5511L9.91281 19.5383L5.0069 20.2688L4.37062 15.996L8.91253 15.3196L8.76171 14.3068L4.21979 14.9831L3.65892 11.2167L8.56482 10.4861L8.414 9.47327L2.40031 10.3688L4.04994 21.4466Z" fill="black"/>
<path d="M17.8238 19.512L18.9365 19.3844L17.8815 10.1807L24.8974 18.7011L26.042 18.5699L24.7665 7.4428L23.6696 7.56853L24.7338 16.8517L17.7246 8.25L16.5483 8.38484L17.8238 19.512Z" fill="black"/>
<path d="M34.6309 17.7402L37.5023 17.5181C41.0278 17.2455 43.0835 14.7757 42.8294 11.4895C42.5827 8.29902 40.3238 6.06653 36.6388 6.35148L33.7674 6.57352L34.6309 17.7402ZM35.6686 16.6329L34.963 7.50812L36.7816 7.3675C39.5573 7.15286 41.4956 8.76823 41.7127 11.5758C41.9286 14.3675 40.2469 16.2789 37.4872 16.4923L35.6686 16.6329Z" fill="black"/>
<path d="M65.2445 16.3273C68.428 16.2685 70.7181 13.7617 70.6566 10.4343C70.5948 7.09085 68.2459 4.68584 65.0305 4.74526C61.815 4.80468 59.5567 7.29484 59.6184 10.6383C59.6799 13.9657 62.0611 16.3861 65.2445 16.3273ZM65.2253 15.2875C62.6977 15.3342 60.7894 13.3851 60.7383 10.6176C60.6871 7.85004 62.5381 5.8315 65.0497 5.78508C67.5613 5.73867 69.4696 7.68774 69.5208 10.4553C69.5719 13.2228 67.7529 15.2408 65.2253 15.2875Z" fill="black"/>
<path d="M79.3275 16.0692L80.4474 16.0887L80.5403 10.7455L85.1316 10.8254L85.1497 9.78552L80.5584 9.70567L80.6243 5.91424L85.5836 6.0005L85.6014 4.97665L79.5223 4.87092L79.3275 16.0692Z" fill="black"/>
<path d="M102.178 16.9018L107.878 17.2802L107.946 16.2585L103.364 15.9542L104.038 5.80057L102.92 5.72637L102.178 16.9018Z" fill="black"/>
<path d="M115.073 17.8814L116.189 17.9836L117.21 6.83021L116.094 6.72809L115.073 17.8814Z" fill="black"/>
<path d="M124.954 18.8693L126.066 19.0005L126.692 13.6933L131.252 14.2311L131.374 13.1983L126.814 12.6604L127.258 8.89454L132.184 9.47546L132.304 8.45851L126.265 7.74641L124.954 18.8693Z" fill="black"/>
<path d="M138.76 20.6254L144.774 21.5209L144.925 20.5081L140.019 19.7775L140.655 15.5046L145.197 16.181L145.348 15.1681L140.806 14.4918L141.367 10.7253L146.273 11.4559L146.423 10.443L140.41 9.54754L138.76 20.6254Z" fill="black"/>
</svg>
