<svg width="149" height="70" viewBox="0 0 149 70" fill="none" xmlns="http://www.w3.org/2000/svg">
<path d="M49.462 42H52.342C55.878 42 58.118 39.696 58.118 36.4C58.118 33.2 56.038 30.8 52.342 30.8H49.462V42ZM50.582 40.976V31.824H52.406C55.19 31.824 56.998 33.584 56.998 36.4C56.998 39.2 55.174 40.976 52.406 40.976H50.582ZM65.8093 42.192C68.9933 42.192 71.3293 39.728 71.3293 36.4C71.3293 33.056 69.0253 30.608 65.8093 30.608C62.5933 30.608 60.2893 33.056 60.2893 36.4C60.2893 39.728 62.6253 42.192 65.8093 42.192ZM65.8093 41.152C63.2812 41.152 61.4093 39.168 61.4093 36.4C61.4093 33.632 63.2973 31.648 65.8093 31.648C68.3212 31.648 70.1933 33.632 70.1933 36.4C70.1933 39.168 68.3373 41.152 65.8093 41.152ZM77.9118 42.192C80.8078 42.192 82.1038 40.096 82.1038 37.568V30.8H80.9838V37.248C80.9838 39.904 79.7838 41.152 77.9118 41.152C76.0398 41.152 74.8398 39.904 74.8398 37.248V30.8H73.7198V37.568C73.7198 40.096 75.0158 42.192 77.9118 42.192ZM85.1964 42H90.9084V40.976H86.3164V30.8H85.1964V42ZM99.8096 42H101.01L96.8976 30.8H95.6176L91.5056 42H92.6896L93.7136 39.136H98.7856L99.8096 42ZM94.0816 38.112L96.2576 32.08L98.4176 38.112H94.0816ZM43.6887 65.192C45.8487 65.192 47.1287 63.736 47.1287 62.056C47.1287 60.68 46.3607 59.688 44.8407 58.872L43.8007 58.312C42.4247 57.592 41.8967 57.08 41.8967 56.216C41.8967 55.384 42.5047 54.632 43.5447 54.632C44.4887 54.632 45.1447 55.224 45.5127 56.104L46.5047 55.608C45.9607 54.36 44.9367 53.608 43.5447 53.608C41.8967 53.608 40.7767 54.76 40.7767 56.248C40.7767 57.416 41.5287 58.312 42.9687 59.096L43.9927 59.64C45.1447 60.264 46.0247 60.936 46.0247 62.056C46.0247 63.224 45.0487 64.168 43.6727 64.168C42.1047 64.168 41.2727 63 40.9847 62.024L39.9607 62.424C40.5047 64.104 41.6887 65.192 43.6887 65.192ZM49.6104 65H55.6904V63.976H50.7304V59.656H55.3224V58.632H50.7304V54.824H55.6904V53.8H49.6104V65ZM58.5323 65H59.6523V59.48H61.1723L64.2123 65H65.4763L62.3563 59.432C64.0203 59.304 65.0763 58.104 65.0763 56.648C65.0763 55.032 63.9083 53.8 62.0043 53.8H58.5323V65ZM59.6523 58.488V54.824H61.9403C63.2203 54.824 63.9563 55.64 63.9563 56.648C63.9563 57.64 63.2363 58.488 61.9403 58.488H59.6523ZM70.2497 65H71.4497L75.3857 53.8H74.1857L70.8577 63.528L67.5457 53.8H66.3137L70.2497 65ZM77.5011 65H78.6211V53.8H77.5011V65ZM86.8319 65.192C89.0559 65.192 90.6239 64.168 91.4879 62.552L90.5119 62.04C89.9039 63.176 88.6719 64.152 86.8159 64.152C84.3039 64.152 82.4639 62.168 82.4639 59.4C82.4639 56.632 84.3039 54.648 86.7679 54.648C88.6079 54.648 89.7919 55.56 90.4159 56.776L91.4079 56.28C90.6399 54.696 89.0559 53.608 86.7999 53.608C83.5679 53.608 81.3439 56.024 81.3439 59.4C81.3439 62.76 83.5039 65.192 86.8319 65.192ZM93.8917 65H99.9717V63.976H95.0117V59.656H99.6037V58.632H95.0117V54.824H99.9717V53.8H93.8917V65ZM105.486 65.192C107.646 65.192 108.926 63.736 108.926 62.056C108.926 60.68 108.158 59.688 106.638 58.872L105.598 58.312C104.222 57.592 103.694 57.08 103.694 56.216C103.694 55.384 104.302 54.632 105.342 54.632C106.286 54.632 106.942 55.224 107.31 56.104L108.302 55.608C107.758 54.36 106.734 53.608 105.342 53.608C103.694 53.608 102.574 54.76 102.574 56.248C102.574 57.416 103.326 58.312 104.766 59.096L105.79 59.64C106.942 60.264 107.822 60.936 107.822 62.056C107.822 63.224 106.846 64.168 105.47 64.168C103.902 64.168 103.07 63 102.782 62.024L101.758 62.424C102.302 64.104 103.486 65.192 105.486 65.192Z" fill="black"/>
<path d="M4.04994 21.4466L10.0636 20.5511L9.91281 19.5383L5.0069 20.2688L4.37062 15.996L8.91253 15.3196L8.76171 14.3068L4.21979 14.9831L3.65892 11.2167L8.56482 10.4861L8.414 9.47327L2.40031 10.3688L4.04994 21.4466Z" fill="black"/>
<path d="M17.8238 19.512L18.9365 19.3844L17.8815 10.1807L24.8974 18.7011L26.042 18.5699L24.7665 7.4428L23.6696 7.56853L24.7338 16.8517L17.7246 8.25L16.5483 8.38484L17.8238 19.512Z" fill="black"/>
<path d="M34.6309 17.7402L37.5023 17.5181C41.0278 17.2455 43.0835 14.7757 42.8294 11.4895C42.5827 8.29902 40.3238 6.06653 36.6388 6.35148L33.7674 6.57352L34.6309 17.7402ZM35.6686 16.6329L34.963 7.50812L36.7816 7.3675C39.5573 7.15286 41.4956 8.76823 41.7127 11.5758C41.9286 14.3675 40.2469 16.2789 37.4872 16.4923L35.6686 16.6329Z" fill="black"/>
<path d="M65.2445 16.3273C68.428 16.2685 70.7181 13.7617 70.6566 10.4343C70.5948 7.09085 68.2459 4.68584 65.0305 4.74526C61.815 4.80468 59.5567 7.29484 59.6184 10.6383C59.6799 13.9657 62.0611 16.3861 65.2445 16.3273ZM65.2253 15.2875C62.6977 15.3342 60.7894 13.3851 60.7383 10.6176C60.6871 7.85004 62.5381 5.8315 65.0497 5.78508C67.5613 5.73867 69.4696 7.68774 69.5208 10.4553C69.5719 13.2228 67.7529 15.2408 65.2253 15.2875Z" fill="black"/>
<path d="M79.3275 16.0692L80.4474 16.0887L80.5403 10.7455L85.1316 10.8254L85.1497 9.78552L80.5584 9.70567L80.6243 5.91424L85.5836 6.0005L85.6014 4.97665L79.5223 4.87092L79.3275 16.0692Z" fill="black"/>
<path d="M102.178 16.9018L107.878 17.2802L107.946 16.2585L103.364 15.9542L104.038 5.80057L102.92 5.72637L102.178 16.9018Z" fill="black"/>
<path d="M115.073 17.8814L116.189 17.9836L117.21 6.83021L116.094 6.72809L115.073 17.8814Z" fill="black"/>
<path d="M124.954 18.8693L126.066 19.0005L126.692 13.6933L131.252 14.2311L131.374 13.1983L126.814 12.6604L127.258 8.89454L132.184 9.47546L132.304 8.45851L126.265 7.74641L124.954 18.8693Z" fill="black"/>
<path d="M138.76 20.6254L144.774 21.5209L144.925 20.5081L140.019 19.7775L140.655 15.5046L145.197 16.181L145.348 15.1681L140.806 14.4918L141.367 10.7253L146.273 11.4559L146.423 10.443L140.41 9.54754L138.76 20.6254Z" fill="black"/>
</svg>
