<svg width="161" height="25" viewBox="0 0 161 25" fill="none" xmlns="http://www.w3.org/2000/svg">
<path d="M3.96394 21.6246L9.98248 20.7623L9.83725 19.7487L4.92739 20.4521L4.31469 16.1758L8.86027 15.5245L8.71504 14.5109L4.16946 15.1622L3.62938 11.3926L8.53924 10.6892L8.39401 9.67553L2.37547 10.5378L3.96394 21.6246Z" fill="black"/>
<path d="M23.8509 19.0585L25.1543 18.9087L20.7093 13.4444L23.4623 7.82942L22.1747 7.97739L19.9499 12.5815L16.7703 8.59849L15.4669 8.74829L19.4096 13.626L16.3323 19.9225L17.6199 19.7746L20.1691 14.489L23.8509 19.0585Z" fill="black"/>
<path d="M37.378 17.9589C39.5942 17.7731 41.0712 16.6217 41.7971 14.9391L40.7817 14.5105C40.2708 15.6933 39.1247 16.7688 37.2751 16.9239C34.7719 17.1338 32.7726 15.3105 32.5413 12.5522C32.31 9.79384 33.9778 7.66303 36.4332 7.45715C38.2668 7.3034 39.5228 8.11328 40.2462 9.27289L41.1933 8.69574C40.2957 7.18145 38.6263 6.22961 36.3782 6.41811C33.1575 6.68816 31.1431 9.28154 31.4252 12.6457C31.706 15.994 34.0616 18.237 37.378 17.9589Z" fill="black"/>
<path d="M49.4661 16.8998L55.5373 16.5726L55.4822 15.5501L50.5294 15.817L50.2969 11.5033L54.8823 11.2561L54.8271 10.2336L50.2418 10.4808L50.0369 6.67828L54.9897 6.41133L54.9346 5.38881L48.8634 5.71604L49.4661 16.8998Z" fill="black"/>
<path d="M63.3789 16.2626L64.4985 16.2324L64.3607 11.1143L66.4719 11.0574C68.3112 11.0079 69.603 9.64462 69.5574 7.94923C69.5117 6.25385 68.1636 4.92966 66.3082 4.97962L63.0774 5.06663L63.3789 16.2626ZM64.334 10.1226L64.2246 6.0601L66.2878 6.00454C67.6313 5.96836 68.4253 6.92333 68.4538 7.97895C68.4818 9.01857 67.7407 10.0309 66.3972 10.0671L64.334 10.1226Z" fill="black"/>
<path d="M79.1593 16H80.2793V5.824L83.5593 5.824V4.8L75.9913 4.8V5.824L79.1593 5.824V16Z" fill="black"/>
<path d="M91.2403 16.1196L92.36 16.1454L92.6184 4.94842L91.4987 4.92258L91.2403 16.1196Z" fill="black"/>
<path d="M105.961 16.8393C109.141 17.0015 111.6 14.6597 111.769 11.336C111.94 7.99637 109.763 5.43419 106.551 5.27037C103.34 5.10654 100.914 7.434 100.744 10.7737C100.574 14.0973 102.781 16.6771 105.961 16.8393ZM106.014 15.8007C103.49 15.6719 101.721 13.5951 101.862 10.8307C102.003 8.06631 103.99 6.18106 106.498 6.30902C109.007 6.43698 110.776 8.51376 110.635 11.2782C110.494 14.0426 108.539 15.9295 106.014 15.8007Z" fill="black"/>
<path d="M120.034 17.5266L121.15 17.6223L121.942 8.39225L127.128 18.1352L128.276 18.2336L129.233 7.07463L128.133 6.98027L127.334 16.2901L122.171 6.4688L120.991 6.36761L120.034 17.5266Z" fill="black"/>
<path d="M143.662 19.9087L144.853 20.048L142.069 8.44636L140.798 8.29777L135.414 18.9447L136.59 19.0822L137.939 16.3564L142.977 16.9452L143.662 19.9087ZM138.424 15.382L141.285 9.64341L142.73 15.8854L138.424 15.382Z" fill="black"/>
<path d="M151.687 20.9733L157.34 21.7889L157.487 20.7754L152.942 20.1197L154.394 10.048L153.286 9.88808L151.687 20.9733Z" fill="black"/>
</svg>
