<svg xmlns="http://www.w3.org/2000/svg" viewBox="0 0 1200 1079.46"><defs><style>.cls-1{fill:#613717;}.cls-2{fill:#fbb47f;}.cls-3{fill:#ceb9b2;}.cls-4{fill:#2aaae2;}.cls-5{fill:#7ac8a9;}.cls-6{fill:#010101;}</style></defs><title>LOGO_SVG</title><g id="Layer_2" data-name="Layer 2"><g id="Layer_1-2" data-name="Layer 1"><path class="cls-1" d="M604,496.25c-94.47,0-171.33-76.86-171.33-171.33S509.54,153.58,604,153.58s171.34,76.86,171.34,171.34S698.49,496.25,604,496.25Zm0-308.12c-75.42,0-136.78,61.36-136.78,136.79S528.59,461.7,604,461.7,740.8,400.34,740.8,324.92,679.44,188.13,604,188.13Z"/><path class="cls-2" d="M604,534.65c-115.64,0-209.73-94.09-209.73-209.73S488.37,115.19,604,115.19s209.74,94.08,209.74,209.73S719.66,534.65,604,534.65Zm0-384.91c-96.59,0-175.18,78.58-175.18,175.18S507.42,500.1,604,500.1s175.18-78.59,175.18-175.18S700.61,149.74,604,149.74Z"/><path class="cls-3" d="M604,573c-136.81,0-248.12-111.3-248.12-248.12S467.2,76.79,604,76.79,852.14,188.1,852.14,324.92,740.83,573,604,573Zm0-461.7c-117.76,0-213.57,95.81-213.57,213.58S486.25,538.49,604,538.49s213.58-95.81,213.58-213.57S721.78,111.34,604,111.34Z"/><path class="cls-4" d="M604,611.44c-158,0-286.52-128.53-286.52-286.52S446,38.4,604,38.4,890.54,166.93,890.54,324.92,762,611.44,604,611.44ZM604,73c-138.93,0-252,113-252,252s113,252,252,252,252-113,252-252S743,73,604,73Z"/><path class="cls-5" d="M604,649.83c-179.16,0-324.91-145.75-324.91-324.91S424.85,0,604,0,928.93,145.76,928.93,324.92,783.17,649.83,604,649.83Zm0-615.28c-160.1,0-290.36,130.26-290.36,290.37S443.91,615.28,604,615.28,894.38,485,894.38,324.92,764.12,34.55,604,34.55Z"/><path class="cls-5" d="M604,458c-73.39,0-133.1-59.71-133.1-133.1s59.71-133.1,133.1-133.1,133.11,59.71,133.11,133.1S677.41,458,604,458Zm0-231.65a98.55,98.55,0,1,0,98.55,98.55A98.66,98.66,0,0,0,604,226.37Z"/><path class="cls-6" d="M1.15,876.41q0-11.19,9.27-19.7t24.39-8.51a45.27,45.27,0,0,1,5.84.34c1.75.23,3.13.42,4.12.58s1.56.23,1.72.23a6.2,6.2,0,0,0,2.75-1.15,6.31,6.31,0,0,1,3.2-1.14q2.78,0,3.7,4.42.69,3.49,1.85,9.78t2,10.6c.53,2.87.81,4.46.81,4.77,0,2.12-1.87,3.17-5.58,3.17a3.61,3.61,0,0,1-3.32-1.66,19.73,19.73,0,0,1-1.95-4.76,15.32,15.32,0,0,0-2.06-4.64c-1.68-2.22-4.39-4.24-8.13-6.09a24.88,24.88,0,0,0-11.1-2.77,16.72,16.72,0,0,0-10.54,3.36A10.5,10.5,0,0,0,13.74,872q0,11.4,18.55,16.55,2.41.72,7,1.75c3.06.69,5.41,1.26,7,1.7s3.63,1.13,6,2a26.71,26.71,0,0,1,6.37,3.44,32.78,32.78,0,0,1,5.32,5A27.5,27.5,0,0,1,71.22,921q0,12.38-9.8,22t-26.15,9.62a59.49,59.49,0,0,1-18.21-3Q7.79,946.68,3,941a11.38,11.38,0,0,1-2.75-8q0-3.66-.12-8.24C0,921.64,0,919.73,0,919q0-4.58.8-6c.53-.92,1.64-1.37,3.32-1.37a3,3,0,0,1,3.21,2,24.28,24.28,0,0,1,.91,6,17.94,17.94,0,0,0,1.38,6.47q2.06,4.56,9.73,9.09a32.39,32.39,0,0,0,16.83,4.54,21.11,21.11,0,0,0,13.51-4.32,13.54,13.54,0,0,0,5.5-11.15,13.82,13.82,0,0,0-8-13.07c-2.75-1.44-5-2.51-6.65-3.19a65.35,65.35,0,0,0-8-2.39l-5.39-1.11Q1.14,897.13,1.15,876.41Z"/><path class="cls-6" d="M82.29,862.86q-4.89,0-4.89-3,0-1.4,3.33-4.31t9.54-9.63A98.64,98.64,0,0,0,102,830.08c1.65-2.88,3.16-4.32,4.51-4.32,2.15,0,3.23,1.29,3.23,3.85,0,1.06,0,3.79-.12,8.17s-.11,7.11-.11,8.17c0,3,1.53,4.54,4.61,4.54h21.19a7.11,7.11,0,0,1,1.16.12,6,6,0,0,0,.92.11q6,0,6,4.43a10.83,10.83,0,0,1-2.08,7c-.77.78-2.15,1.16-4.14,1.16H109.48a2,2,0,0,0-2.3,2.31q0,19.13-.12,31.8t-.23,17.05c-.08,2.92-.11,5-.11,6.22q0,17.5,12.2,17.51,4.83,0,10.13-3.72a90.58,90.58,0,0,0,9.33-7.44c2.68-2.48,4.72-3.73,6.1-3.73a4.06,4.06,0,0,1,3.11,1.38,4.32,4.32,0,0,1,1.26,3,8.27,8.27,0,0,1-1.6,3.89q-18.54,21.08-32.75,21.07-8.48,0-15.45-6.65t-8.13-21.31c-.16-1.65-.23-4.13-.23-7.44q0-5.76.45-28t.45-24.31c0-1.38-.54-2.07-1.63-2.07Z"/><path class="cls-6" d="M172.9,919.88V897.67q0-10.3.12-16.15t.11-7a3.78,3.78,0,0,0-1.72-3.55q-1.71-1-14.08-6.07c-2-.76-3-1.76-3-3a3.11,3.11,0,0,1,.34-1.37,2.76,2.76,0,0,1,1.15-1.15c.53-.3,1-.57,1.49-.8s1.06-.49,1.83-.8,1.3-.53,1.6-.69q25.65-12.36,25.88-12.36h.23q3.21,0,3.21,3.89l-.23,7.56q-.47,7.54-.8,20.26t-.35,25.31v7.78q0,21.76.69,25.65a4.82,4.82,0,0,0,4.58,4.35,53,53,0,0,1,8.7,1.61c1.22.46,1.83,1.6,1.83,3.43q0,5-2.74,5c-.16,0-.62,0-1.38-.11l-3.2-.35c-1.38-.15-2.91-.3-4.58-.46s-3.63-.26-5.84-.34-4.4-.11-6.53-.11-4.35,0-6.64.11-4.24.19-5.84.34l-4.47.46-3.2.35c-.77.07-1.23.11-1.38.11q-3.66,0-3.66-3.89c0-2.6.49-4.12,1.49-4.58s4.38-1.07,10.19-1.83c2.75-.46,4.46-1.34,5.15-2.64a12.82,12.82,0,0,0,1-5.84Zm2.29-116.57a10.26,10.26,0,0,1,3.44-7.78,11.36,11.36,0,0,1,8-3.21,11,11,0,0,1,7.9,3.21,10.19,10.19,0,0,1,3.32,7.56,10.68,10.68,0,0,1-3.32,8,11.24,11.24,0,0,1-8.13,3.21,11.08,11.08,0,0,1-8-3.09A10.52,10.52,0,0,1,175.19,803.31Z"/><path class="cls-6" d="M261.07,945.18q0,4.47-2.77,4.47c-.15,0-.66,0-1.5-.11l-3.34-.35c-1.39-.15-2.93-.3-4.61-.46s-3.7-.26-6-.34-4.52-.11-6.62-.11-4.25,0-6.4.11-4.08.15-5.77.23-3.19.19-4.5.34-2.34.27-3.11.35-1.23.11-1.39.11c-2.3,0-3.46-1.34-3.46-4v-.67c0-1.93.5-3.16,1.51-3.69s3.76-1,8.25-1.47q4.17-.45,5.45-2.63a12.55,12.55,0,0,0,1.28-6.31V811.15a7,7,0,0,0-.11-1.26,4.3,4.3,0,0,0-.35-1,6,6,0,0,1-.34-.81,1.5,1.5,0,0,0-.69-.69l-.91-.57c-.23-.15-.69-.42-1.38-.8s-1.18-.65-1.49-.81c-1.52-.91-3.17-1.87-4.92-2.86s-3-1.72-3.66-2.18-1.42-.95-2.18-1.49a5.52,5.52,0,0,1-1.49-1.37,2.44,2.44,0,0,1-.34-1.27v-.23q0-1.14,8.7-5.73,10.74-5.28,20-10.32a5.13,5.13,0,0,1,2.93-.92q3.16,0,3.17,4.36V931.78a18.42,18.42,0,0,0,.11,2.29,12.15,12.15,0,0,0,.35,1.72,7.41,7.41,0,0,0,.47,1.26,2.48,2.48,0,0,0,1,.92c.54.3.93.53,1.16.68a6.57,6.57,0,0,0,1.63.58c.85.23,1.47.39,1.86.46s1.24.19,2.56.34a28.39,28.39,0,0,1,2.9.46A4.28,4.28,0,0,1,261.07,945.18Z"/><path class="cls-6" d="M317,945.18c0,3-.93,4.47-2.77,4.47-.16,0-.66,0-1.5-.11l-3.34-.35c-1.39-.15-2.93-.3-4.62-.46s-3.69-.26-6-.34-4.52-.11-6.63-.11-4.24,0-6.39.11-4.08.15-5.77.23-3.19.19-4.5.34-2.34.27-3.11.35-1.23.11-1.39.11q-3.46,0-3.46-4v-.67c0-1.93.5-3.16,1.51-3.69s3.75-1,8.24-1.47q4.18-.45,5.46-2.63a12.66,12.66,0,0,0,1.28-6.31V811.15a6.13,6.13,0,0,0-.12-1.26,3.9,3.9,0,0,0-.34-1,6,6,0,0,1-.34-.81,1.5,1.5,0,0,0-.69-.69l-.92-.57c-.22-.15-.68-.42-1.37-.8l-1.49-.81c-1.53-.91-3.17-1.87-4.92-2.86s-3-1.72-3.67-2.18-1.41-.95-2.17-1.49a5.37,5.37,0,0,1-1.49-1.37,2.44,2.44,0,0,1-.34-1.27v-.23q0-1.14,8.7-5.73,10.74-5.28,20-10.32a5.13,5.13,0,0,1,2.93-.92q3.17,0,3.17,4.36V931.78a18.42,18.42,0,0,0,.11,2.29,10.9,10.9,0,0,0,.35,1.72,6.64,6.64,0,0,0,.47,1.26,2.48,2.48,0,0,0,1,.92c.54.3.93.53,1.16.68a6.57,6.57,0,0,0,1.63.58c.85.23,1.47.39,1.86.46s1.24.19,2.55.34a28.22,28.22,0,0,1,2.91.46A4.28,4.28,0,0,1,317,945.18Z"/><path class="cls-6" d="M411.07,856c0,.92.38,1.38,1.15,1.38a23.5,23.5,0,0,0,4.36-2.42A54.83,54.83,0,0,1,428,850.11a52.39,52.39,0,0,1,16.2-2.41q20.46,0,32.84,14.36t12.39,37.54a71.26,71.26,0,0,1-2.05,17.18q-2.05,8.33-9.45,17.53a44.63,44.63,0,0,1-19.48,13.77,74.3,74.3,0,0,1-26,4.55,43.57,43.57,0,0,1-13.09-2.18q-6.89-2.18-9.87-2.17a11.29,11.29,0,0,0-7.23,2.52c-2.11,1.67-3.53,2.51-4.28,2.51-2.42,0-3.62-2.26-3.62-6.79q0-13.77.34-68.7t.35-68.7a6.2,6.2,0,0,0-3-5.28c-1.09-.61-2.17-1.27-3.26-2s-2-1.23-2.67-1.61-1.44-.8-2.21-1.26a14.88,14.88,0,0,1-1.74-1.15c-.39-.31-.82-.61-1.28-.92l-1.05-.69a2.1,2.1,0,0,1-.58-.57,3.2,3.2,0,0,1-.35-.69,1.76,1.76,0,0,1-.11-.58c0-1.23,1-2.22,3-3q25.88-10.34,26.79-10.34,3.21.46,3.21,4.6,0,7.8-.35,37.66T411.07,856Zm64.12,47.54q0-19.07-11.72-31.23T435.89,860.1A40.76,40.76,0,0,0,419,864q-8.62,3.9-8.62,7.58v60.16a5.37,5.37,0,0,1-.11.81,4.62,4.62,0,0,0-.12.8q0,4.36,3.45,5.75a58.42,58.42,0,0,0,21.6,4.36q17.93,0,29-11.14T475.19,903.51Z"/><path class="cls-6" d="M525.8,859.88a55.54,55.54,0,0,0,5-3.32q4.81-3.31,10.76-7.21a44.37,44.37,0,0,1,8.71-4.81,22,22,0,0,1,6.87-.92,28.32,28.32,0,0,1,12.36,2.86q6,2.87,6,7.45v.22a4.92,4.92,0,0,1-.92,2.75A13.15,13.15,0,0,1,573,859c-.46.46-1.23,1.15-2.29,2.06l-1.61,1.38a13.28,13.28,0,0,0-2.4,1.72,17.88,17.88,0,0,1-3.78,2.4,8.58,8.58,0,0,1-3.43.69q-2.76,0-6.3-3a11.76,11.76,0,0,0-7.67-3q-5,0-10.77,3.67t-7.33,6a8.05,8.05,0,0,0-.91,4.35v57q0,6.63,5.72,7.1,2.29.23,6.19.45,7.1.45,9,1.21c1.3.51,1.95,1.78,1.95,3.82q0,4.81,5.34,4.82c.26,0-.34,0-1.8.08s-4.14-.07-8-.35-6.8-.49-8.69-.65-4.09-.26-6.61-.34-4.92-.11-7.21-.11c-2.45,0-4.89,0-7.33.11s-4.62.19-6.53.34-3.59.31-5,.46l-3.43.35c-.84.07-1.34.11-1.49.11-2.6,0-3.89-1.37-3.89-4.1a4.63,4.63,0,0,1,2.74-4.7,18,18,0,0,1,3.55-.7,29.69,29.69,0,0,0,4.24-.8q4.35-.92,4.35-5.46V872a8.21,8.21,0,0,0-.23-2.16,4.53,4.53,0,0,0-1.26-1.82,13.62,13.62,0,0,0-2.06-1.71c-.68-.45-2-1.37-4-2.74s-3.81-2.66-5.49-3.88a3.37,3.37,0,0,1-.92-1.6q0-.91,9.39-5.27,8.48-4.12,15.35-7.56A1.66,1.66,0,0,0,521,845a3.55,3.55,0,0,1,1.38-.45q2.75,0,2.74,4.81v9.38C525.11,859.5,525.34,859.88,525.8,859.88Z"/><path class="cls-6" d="M597.71,919.88V897.67q0-10.3.11-16.15t.12-7a3.78,3.78,0,0,0-1.72-3.55q-1.71-1-14.08-6.07c-2-.76-3-1.76-3-3a3,3,0,0,1,.34-1.37,2.76,2.76,0,0,1,1.15-1.15c.53-.3,1-.57,1.49-.8s1.06-.49,1.83-.8,1.3-.53,1.6-.69q25.65-12.36,25.88-12.36h.23q3.21,0,3.21,3.89l-.23,7.56q-.46,7.54-.81,20.26t-.34,25.31v7.78q0,21.76.69,25.65a4.82,4.82,0,0,0,4.58,4.35,53,53,0,0,1,8.7,1.61c1.22.46,1.83,1.6,1.83,3.43,0,3.36-.91,5-2.75,5-.15,0-.61,0-1.37-.11l-3.21-.35c-1.37-.15-2.9-.3-4.58-.46s-3.62-.26-5.84-.34-4.39-.11-6.52-.11-4.35,0-6.64.11-4.24.19-5.84.34l-4.47.46-3.2.35c-.77.07-1.23.11-1.38.11q-3.66,0-3.66-3.89c0-2.6.49-4.12,1.49-4.58s4.38-1.07,10.19-1.83q4.11-.69,5.15-2.64a12.82,12.82,0,0,0,1-5.84ZM600,803.31a10.26,10.26,0,0,1,3.44-7.78,11.35,11.35,0,0,1,8-3.21,11,11,0,0,1,7.9,3.21,10.19,10.19,0,0,1,3.32,7.56,10.68,10.68,0,0,1-3.32,8,11.24,11.24,0,0,1-8.13,3.21,11.08,11.08,0,0,1-8-3.09A10.52,10.52,0,0,1,600,803.31Z"/><path class="cls-6" d="M685.88,945.18c0,3-.93,4.47-2.77,4.47-.16,0-.66,0-1.5-.11l-3.34-.35c-1.39-.15-2.93-.3-4.62-.46s-3.69-.26-6-.34-4.52-.11-6.63-.11-4.24,0-6.39.11-4.08.15-5.77.23-3.19.19-4.5.34-2.34.27-3.11.35-1.23.11-1.39.11q-3.47,0-3.46-4v-.67c0-1.93.5-3.16,1.51-3.69s3.76-1,8.25-1.47q4.17-.45,5.45-2.63a12.55,12.55,0,0,0,1.28-6.31V811.15a7,7,0,0,0-.11-1.26,4.3,4.3,0,0,0-.35-1,6,6,0,0,1-.34-.81,1.5,1.5,0,0,0-.69-.69l-.91-.57c-.23-.15-.69-.42-1.38-.8s-1.18-.65-1.49-.81c-1.52-.91-3.17-1.87-4.92-2.86s-3-1.72-3.66-2.18-1.42-.95-2.18-1.49a5.37,5.37,0,0,1-1.49-1.37A2.44,2.44,0,0,1,635,796v-.23q0-1.14,8.7-5.73,10.74-5.28,20-10.32a5.13,5.13,0,0,1,2.93-.92q3.17,0,3.17,4.36V931.78a18.42,18.42,0,0,0,.11,2.29,10.9,10.9,0,0,0,.35,1.72,7.41,7.41,0,0,0,.47,1.26,2.48,2.48,0,0,0,1,.92c.54.3.93.53,1.16.68a6.57,6.57,0,0,0,1.63.58c.85.23,1.47.39,1.86.46s1.24.19,2.56.34a28.39,28.39,0,0,1,2.9.46A4.28,4.28,0,0,1,685.88,945.18Z"/><path class="cls-6" d="M741.76,945.18c0,3-.93,4.47-2.77,4.47-.16,0-.66,0-1.5-.11l-3.35-.35c-1.38-.15-2.92-.3-4.61-.46s-3.69-.26-6-.34-4.51-.11-6.62-.11-4.24,0-6.39.11-4.08.15-5.77.23-3.19.19-4.5.34-2.35.27-3.11.35-1.24.11-1.39.11q-3.46,0-3.46-4v-.67c0-1.93.5-3.16,1.51-3.69s3.75-1,8.24-1.47q4.19-.45,5.46-2.63a12.66,12.66,0,0,0,1.28-6.31V811.15a6.13,6.13,0,0,0-.12-1.26,3.9,3.9,0,0,0-.34-1,6,6,0,0,1-.34-.81,1.5,1.5,0,0,0-.69-.69l-.92-.57c-.22-.15-.68-.42-1.37-.8l-1.49-.81c-1.53-.91-3.17-1.87-4.92-2.86s-3-1.72-3.67-2.18-1.41-.95-2.17-1.49a5.37,5.37,0,0,1-1.49-1.37,2.44,2.44,0,0,1-.34-1.27v-.23c0-.76,2.89-2.67,8.7-5.73q10.74-5.28,20-10.32a5.19,5.19,0,0,1,2.94-.92q3.16,0,3.17,4.36V931.78a18.42,18.42,0,0,0,.11,2.29,10.9,10.9,0,0,0,.35,1.72,6.64,6.64,0,0,0,.47,1.26,2.48,2.48,0,0,0,1,.92c.54.3.93.53,1.16.68a6.57,6.57,0,0,0,1.63.58c.85.23,1.47.39,1.86.46s1.24.19,2.55.34a28.22,28.22,0,0,1,2.91.46A4.28,4.28,0,0,1,741.76,945.18Z"/><path class="cls-6" d="M766.26,919.88V897.67q0-10.3.11-16.15t.12-7a3.78,3.78,0,0,0-1.72-3.55q-1.71-1-14.08-6.07c-2-.76-3-1.76-3-3a3,3,0,0,1,.34-1.37,2.76,2.76,0,0,1,1.15-1.15c.53-.3,1-.57,1.49-.8s1.06-.49,1.83-.8,1.29-.53,1.6-.69q25.65-12.36,25.88-12.36h.23c2.13,0,3.21,1.3,3.21,3.89l-.23,7.56q-.47,7.54-.81,20.26t-.34,25.31v7.78q0,21.76.69,25.65a4.82,4.82,0,0,0,4.58,4.35,53,53,0,0,1,8.7,1.61c1.22.46,1.83,1.6,1.83,3.43,0,3.36-.91,5-2.75,5-.15,0-.61,0-1.37-.11l-3.21-.35c-1.37-.15-2.9-.3-4.58-.46s-3.62-.26-5.84-.34-4.39-.11-6.52-.11-4.35,0-6.64.11-4.24.19-5.84.34l-4.47.46-3.2.35c-.77.07-1.23.11-1.38.11q-3.66,0-3.66-3.89c0-2.6.49-4.12,1.49-4.58s4.38-1.07,10.19-1.83q4.11-.69,5.15-2.64a12.82,12.82,0,0,0,1-5.84Zm2.29-116.57a10.25,10.25,0,0,1,3.43-7.78,11.37,11.37,0,0,1,8-3.21,11,11,0,0,1,7.9,3.21,10.19,10.19,0,0,1,3.32,7.56,10.68,10.68,0,0,1-3.32,8,11.24,11.24,0,0,1-8.13,3.21,11.06,11.06,0,0,1-8-3.09A10.52,10.52,0,0,1,768.55,803.31Z"/><path class="cls-6" d="M807.94,868q0-7,11-14.19a45.13,45.13,0,0,1,33.46-6.24,61.69,61.69,0,0,1,10.31,3.24,21.6,21.6,0,0,1,9.76,8,29.31,29.31,0,0,1,4.87,13.74q.45,5.55.45,8.55v45.46a11.85,11.85,0,0,0,1.6,6.53,7.09,7.09,0,0,0,3.21,3,9.67,9.67,0,0,0,3.2.56,6.91,6.91,0,0,0,5-1.78,16.26,16.26,0,0,0,2.86-3.55,2.91,2.91,0,0,1,2.41-1.77c1.37,0,2.06,1,2.06,3q0,5.49-5,12a15.75,15.75,0,0,1-13,6.52,16.58,16.58,0,0,1-5.64-1,13.74,13.74,0,0,1-4.45-2.52c-1.18-1-2.26-2-3.22-3a24.05,24.05,0,0,1-2.34-2.65l-.67-1c-.15,0-.22,0-.22-.12s-.08-.12-.22-.12a.73.73,0,0,0-.67.49,10.44,10.44,0,0,1-1.61,1.91,23.32,23.32,0,0,1-3.91,3.1,39.76,39.76,0,0,1-21.88,6.68q-11.73,0-19.06-7.55a25.61,25.61,0,0,1-7.34-18.54v-.23q0-13.26,9.8-20.82a34.47,34.47,0,0,1,8.88-4.92,66.85,66.85,0,0,1,10.82-3.31q5.35-1.15,10.13-2t8-1l3.22-.22c1.23-.31,1.85-1.36,1.85-3.15v-8.33q0-11.92-5.54-18.46a18.38,18.38,0,0,0-13.83-6.07q-11.71,0-19.11,15.3a6.51,6.51,0,0,1-5.27,2.7,11.06,11.06,0,0,1-6.84-2.25A7.2,7.2,0,0,1,807.94,868Zm32.84,71.53a22.9,22.9,0,0,0,10-2.26,25.87,25.87,0,0,0,6.57-4.07c1.22-1.21,2.22-2.26,3-3.17a8.43,8.43,0,0,0,1.39-5.2V909.63a26.62,26.62,0,0,0-.35-5.54,1.76,1.76,0,0,0-2-1.25,73,73,0,0,0-14.4,1.8q-8.65,1.8-13.72,6.53-5.54,4.5-5.53,12.6,0,8.65,4.84,12.75Q833.87,939.49,840.78,939.48Z"/><path class="cls-6" d="M933.21,860.11c0,.6.23.91.68.91h.23a7.11,7.11,0,0,0,1.72-1.37q1.49-1.38,4.28-3.48a58.3,58.3,0,0,1,6.5-4.2,43,43,0,0,1,20.21-5.14h.47a37.52,37.52,0,0,1,9.64,1.26,39.65,39.65,0,0,1,10.23,4.59,25.81,25.81,0,0,1,9.17,10.45,46.59,46.59,0,0,1,4.65,17.46,111.08,111.08,0,0,1,.46,11.94V897q0,3.54-.11,12.67t-.12,23.3v.45a10.17,10.17,0,0,0,.22,2.17c.14.69.25,1.22.32,1.6a2.1,2.1,0,0,0,.75,1.14,11.63,11.63,0,0,0,1,.8,5.71,5.71,0,0,0,1.5.57,7,7,0,0,0,1.72.34c.35,0,1.14.08,2.36.23a24.3,24.3,0,0,1,2.68.46q3.22.46,3.22,4.35c0,3.06-1.2,4.58-3.6,4.58a30.73,30.73,0,0,1-3.15-.34q-2.49-.34-6.87-.69t-9.35-.34c-2,0-4.06,0-6.09.11s-3.79.19-5.27.34l-4.1.46a27.32,27.32,0,0,0-2.83.46h-1c-1.78,0-2.67-1.52-2.67-4.58q0-2.52,1.29-3.21c.86-.45,3.17-1,6.91-1.6,1.3-.3,2.37-.53,3.24-.68a4.7,4.7,0,0,0,2.92-1.49q.75-1,.75-4V897.78q0-17.12-3.21-25.35a20.26,20.26,0,0,0-10.3-10.84,32,32,0,0,0-13-3.08,25.5,25.5,0,0,0-16,5.48q-7.11,5.47-8,9.59a13.15,13.15,0,0,0-.46,3.19v56q0,5.94,5.27,6.63,10.3,1.6,11.22,2.51c.92.77,1.37,2.07,1.37,3.9q0,4.13-3,4.12c-.16,0-.65,0-1.49-.11l-3.32-.35c-1.38-.15-2.9-.34-4.58-.57s-3.63-.38-5.84-.46-4.39-.11-6.53-.11-4.27,0-6.41.11-4,.19-5.61.34-3,.31-4.24.46l-3,.35c-.77.07-1.23.11-1.38.11-2.6,0-3.89-1.37-3.89-4.12,0-2.14.49-3.47,1.49-4s3.55-1.1,7.67-1.72c2.75-.45,4.46-1.29,5.15-2.51a11.38,11.38,0,0,0,1-5.48V876.09q0-4.11-1.14-5.59t-9.39-7.65a3.81,3.81,0,0,1-1.38-2.32v-.24c0-.77.54-1.5,1.61-2.2s4.35-2.51,9.84-5.45c4.28-2.32,7.86-4.25,10.77-5.8a4.37,4.37,0,0,1,2.29-.93c1.83,0,2.75,1.17,2.75,3.49v9.32a4,4,0,0,1-.23.93Z"/><path class="cls-6" d="M1066.49,952.4q-20.16,0-32.86-14.19t-12.71-36.15q0-24.06,14.19-39.08t36.65-15q12.36,0,21.06,5.27t8.71,12.14a8,8,0,0,1-2.75,6.29,9.71,9.71,0,0,1-6.64,2.41q-5,0-13.17-7.22t-15.23-7.21q-10.77,0-18.78,10.89t-8,25.72a43.56,43.56,0,0,0,10.65,29.32Q1058.24,938,1074.05,938a30.69,30.69,0,0,0,11.33-2,24.08,24.08,0,0,0,7.79-4.51,68.43,68.43,0,0,1,5.27-4.51q2.63-2,4.23-2a3.89,3.89,0,0,1,3.89,3.89,6.08,6.08,0,0,1-1.37,3.67,50.69,50.69,0,0,1-16.26,14.19A44.6,44.6,0,0,1,1066.49,952.4Z"/><path class="cls-6" d="M1111.6,900.19q0-23.93,12.5-38.42t30.46-14.49a42.88,42.88,0,0,1,22.37,6.44,60.29,60.29,0,0,1,17.81,16.09,8,8,0,0,1,1.82,5.06v.46a6.19,6.19,0,0,1-1.13,3.68,9.62,9.62,0,0,1-3.62,2.88,47.27,47.27,0,0,1-4.31,2q-1.82.69-5.33,1.84c-2.34.76-3.82,1.23-4.42,1.38q-48,16.58-49.2,17.27a1.49,1.49,0,0,0-.92,1.38,25.35,25.35,0,0,0,.69,4.61,44.69,44.69,0,0,0,3.11,8.53,46.92,46.92,0,0,0,6,9.78,29.77,29.77,0,0,0,10.25,7.83,33,33,0,0,0,15,3.34q16.14,0,28.12-11.81,3.23-3.3,5.3-3.3,3.92,0,3.92,3.43c0,.92-.61,2.14-1.83,3.67A53,53,0,0,1,1179.85,947a50.23,50.23,0,0,1-23.13,5.61,43.68,43.68,0,0,1-15.23-2.74,50.32,50.32,0,0,1-14.43-8.43q-7-5.7-11.22-16.42T1111.6,900.19Zm62.52-24.42q0-3-8-9.33t-16.8-6.33q-10.37,0-16.46,9t-6.09,24.64c0,1.23.38,1.84,1.14,1.84q.47,0,22-8.4t22.21-8.64C1173.43,877.77,1174.12,876.85,1174.12,875.77Z"/><path class="cls-6" d="M2.18,1057q0-9.9,5.18-15.9a16,16,0,0,1,12.6-6,17.76,17.76,0,0,1,9.27,2.67,24.83,24.83,0,0,1,7.37,6.66,3.29,3.29,0,0,1,.75,2.09v.19a2.57,2.57,0,0,1-.47,1.53,4,4,0,0,1-1.5,1.19c-.69.34-1.28.62-1.78.81s-1.24.44-2.21.76l-1.83.57q-19.89,6.87-20.36,7.15a.6.6,0,0,0-.38.57,10.45,10.45,0,0,0,.28,1.91,18.14,18.14,0,0,0,1.29,3.53,19.46,19.46,0,0,0,2.48,4,12.36,12.36,0,0,0,4.25,3.24,13.68,13.68,0,0,0,6.2,1.38A16.06,16.06,0,0,0,35,1068.5a3.61,3.61,0,0,1,2.19-1.36c1.08,0,1.63.47,1.63,1.42a2.81,2.81,0,0,1-.76,1.51,21.94,21.94,0,0,1-7.59,6.31,20.73,20.73,0,0,1-9.57,2.32,18.3,18.3,0,0,1-6.31-1.13,20.86,20.86,0,0,1-6-3.49,16.28,16.28,0,0,1-4.65-6.8A27.87,27.87,0,0,1,2.18,1057Zm25.88-10.1q0-1.25-3.33-3.87a11.17,11.17,0,0,0-7-2.62,7.83,7.83,0,0,0-6.81,3.72q-2.52,3.72-2.52,10.2c0,.51.15.77.47.77q.19,0,9.1-3.48T27.2,1048C27.78,1047.71,28.06,1047.33,28.06,1046.89Z"/><path class="cls-6" d="M90.56,1040.4c0,.25.09.38.28.38h.1a3,3,0,0,0,.71-.57q.61-.57,1.77-1.44a25.16,25.16,0,0,1,2.69-1.74,17.42,17.42,0,0,1,3.75-1.5,16.84,16.84,0,0,1,4.62-.63h.19a16,16,0,0,1,4,.52,16.43,16.43,0,0,1,4.23,1.91,10.7,10.7,0,0,1,3.8,4.32,19.52,19.52,0,0,1,1.92,7.23,45.54,45.54,0,0,1,.19,4.94v1.85c0,1,0,2.72,0,5.24s0,5.74,0,9.65v.18a4.46,4.46,0,0,0,.09.91c.06.28.1.5.13.66a.89.89,0,0,0,.31.47,4.35,4.35,0,0,0,.4.33,3,3,0,0,0,.62.24,3.25,3.25,0,0,0,.71.14c.15,0,.48,0,1,.09a10.93,10.93,0,0,1,1.11.19c.89.13,1.34.73,1.34,1.8,0,1.27-.5,1.9-1.5,1.9-.18,0-.62,0-1.3-.14s-1.63-.19-2.85-.29-2.5-.14-3.86-.14c-.84,0-1.68,0-2.52,0s-1.57.08-2.19.14l-1.69.19a11.7,11.7,0,0,0-1.18.19h-.39c-.74,0-1.11-.63-1.11-1.9q0-1,.54-1.32a12.92,12.92,0,0,1,2.86-.67c.54-.12,1-.22,1.34-.28a2,2,0,0,0,1.21-.61,3,3,0,0,0,.31-1.66v-15q0-7.1-1.33-10.5a8.38,8.38,0,0,0-4.26-4.49,13.24,13.24,0,0,0-5.41-1.27,10.59,10.59,0,0,0-6.63,2.27q-2.94,2.27-3.32,4a5.3,5.3,0,0,0-.19,1.32v23.16c0,1.64.73,2.55,2.18,2.74,2.84.45,4.39.79,4.65,1a2,2,0,0,1,.56,1.61c0,1.14-.41,1.7-1.23,1.7l-.61,0-1.38-.15-1.9-.23a22.29,22.29,0,0,0-2.41-.19c-.92,0-1.82,0-2.71,0s-1.77,0-2.65,0-1.66.08-2.32.14-1.25.13-1.76.19l-1.23.14-.57,0c-1.07,0-1.61-.57-1.61-1.71,0-.88.21-1.43.62-1.66a13.3,13.3,0,0,1,3.17-.71c1.14-.19,1.85-.53,2.14-1a4.79,4.79,0,0,0,.42-2.27V1047a4.07,4.07,0,0,0-.47-2.32,31.4,31.4,0,0,0-3.89-3.16,1.6,1.6,0,0,1-.57-1v-.09c0-.32.22-.63.67-.91s1.8-1,4.07-2.26l4.46-2.4a1.8,1.8,0,0,1,1-.39c.76,0,1.13.49,1.13,1.45v3.86a1.66,1.66,0,0,1-.09.38Z"/><path class="cls-6" d="M185.86,1035.85a40,40,0,0,1,5.31.33,27.64,27.64,0,0,1,3.79.69l1.33.37c.51,0,.76-.28.76-.85v-16.28a2.78,2.78,0,0,0-.05-.52c0-.16-.06-.3-.09-.43a1.13,1.13,0,0,0-.19-.38c-.1-.12-.17-.22-.23-.28a2.64,2.64,0,0,0-.43-.28l-.56-.34a5.45,5.45,0,0,0-.75-.33c-.34-.12-.65-.25-.93-.38s-.67-.28-1.17-.47-1-.38-1.41-.57c-1.18-.32-1.78-.82-1.78-1.52,0-.38.29-.75.85-1.13q12.13-5.88,12.51-5.88c.76,0,1.15.44,1.15,1.33,0,.63,0,2.29-.1,5s-.11,6.38-.14,11.07,0,9.8,0,15.34q0,25.89.29,28.44a1.23,1.23,0,0,0,.05.43.92.92,0,0,0,.14.28.76.76,0,0,0,.23.24,1.21,1.21,0,0,0,.38.14l.43.09a2.92,2.92,0,0,0,.62,0h.76c.22,0,.52,0,.9,0s.72,0,1,0c1.26,0,1.89.48,1.89,1.43a1.22,1.22,0,0,1-.52,1,13.24,13.24,0,0,1-2.18,1.1,26.88,26.88,0,0,0-3.08,1.57,36.13,36.13,0,0,0-3.45,2.12c-1,.72-1.76,1.25-2.21,1.6a2,2,0,0,1-1.06.52c-.51,0-.77-.28-.77-.85v-3.26c0-.2-.09-.3-.28-.3l-.57.4a13,13,0,0,1-1.42,1,22.25,22.25,0,0,1-2.22,1.18,14.79,14.79,0,0,1-3.21,1,20.27,20.27,0,0,1-4,.4,19.88,19.88,0,0,1-15.34-6.45,22.55,22.55,0,0,1-5.94-15.89,21.46,21.46,0,0,1,5.45-14.59q5.46-6.21,16.17-6.21Zm-.15,3.79q-7.19,0-11.05,4.35t-3.87,11.81q0,8.23,5.47,13t11.34,4.83a14.68,14.68,0,0,0,5.72-1.18c1.85-.79,3-1.79,3.35-3a10.57,10.57,0,0,0,.38-2.18V1045.6a3.17,3.17,0,0,0-1-2.27A14.53,14.53,0,0,0,185.71,1039.64Z"/><path class="cls-6" d="M311.33,1057.18q0-9.81,6.08-16a19.59,19.59,0,0,1,14.44-6.18,19,19,0,0,1,14.54,6.23q5.81,6.24,5.8,16,0,9.91-6,15.72a20.37,20.37,0,0,1-14.68,5.8,18.65,18.65,0,0,1-14.53-6.23A22,22,0,0,1,311.33,1057.18ZM322.05,1069a11.68,11.68,0,0,0,9.71,4.83,12.18,12.18,0,0,0,9.89-4.83,17.72,17.72,0,0,0,3.9-11.49,18.83,18.83,0,0,0-4.33-12.61q-4.32-5.1-10-5.11-4.76,0-8.8,4.13t-4.05,12.75Q318.34,1064.21,322.05,1069Z"/><path class="cls-6" d="M395,1077.47c-1,0-1.53-.77-1.53-2.32a1.15,1.15,0,0,1,.63-1.19,12,12,0,0,1,2.74-.57,13.33,13.33,0,0,0,1.34-.19,1.47,1.47,0,0,0,.53-.09.87.87,0,0,0,.39-.29,2,2,0,0,1,.24-.29.73.73,0,0,0,.14-.38,3.57,3.57,0,0,0,.05-.38c0-.06,0-.23.05-.48s.05-.41.05-.48q.38-5,.38-28a.81.81,0,0,0-.57-.86,11.83,11.83,0,0,0-2.79-.19h-1.82c-1.41,0-2.12-.55-2.12-1.64,0-1.88.71-2.82,2.12-2.82q1.24-.09,2.88-.09a8.52,8.52,0,0,0,1.82-.1c.2-.06.29-.31.29-.76v-.09q.29-12.11,4.12-18.83a19.93,19.93,0,0,1,7.88-7.52,20.36,20.36,0,0,1,9.81-2.85,7.7,7.7,0,0,1,5.26,1.56,4.6,4.6,0,0,1,1.75,3.46,3.72,3.72,0,0,1-1.09,2.66,3.92,3.92,0,0,1-3,1.14,9.44,9.44,0,0,1-3.94-1.43,9.57,9.57,0,0,0-4.12-1.42q-4.94,0-7.44,6.09t-2.52,15.48v.87a3.32,3.32,0,0,0,.15,1.26c.09.19.36.29.81.29H417c1.46,0,2.2.64,2.2,1.91v.09c0,1.89-.86,2.83-2.58,2.83h-9.17a.76.76,0,0,0-.86.86v28.42c0,1.46.64,2.23,1.92,2.29.51.07,1.09.11,1.73.15s1.1,0,1.39,0,.61,0,1,.05a2,2,0,0,1,.77.18,3.43,3.43,0,0,1,.48.33.72.72,0,0,1,.28.5,4.56,4.56,0,0,1,0,.79q0,2-1.62,2l-.58,0-1.29-.14c-.54-.06-1.16-.13-1.86-.19s-1.5-.11-2.39-.14-1.77,0-2.65,0-1.77,0-2.69,0-1.72.08-2.38.14l-1.86.19-1.34.14Z"/><path class="cls-6" d="M541.1,1075.62c0,1.23-.38,1.85-1.14,1.85l-.62,0-1.39-.14-1.91-.19c-.7-.06-1.52-.11-2.48-.14s-1.87,0-2.74,0-1.76,0-2.65,0l-2.39.09q-1,0-1.86.15l-1.29.14-.57,0c-1,0-1.43-.55-1.43-1.66v-.28c0-.8.2-1.31.62-1.52a12.87,12.87,0,0,1,3.41-.61,2.79,2.79,0,0,0,2.26-1.09,5.18,5.18,0,0,0,.53-2.62v-49.46a2.14,2.14,0,0,0-.05-.52,1.81,1.81,0,0,0-.14-.43,2.16,2.16,0,0,1-.14-.33.68.68,0,0,0-.28-.29l-.38-.23c-.1-.07-.29-.18-.57-.34l-.62-.33c-.63-.38-1.31-.77-2-1.18s-1.23-.72-1.51-.91l-.9-.61a2.07,2.07,0,0,1-.62-.57,1,1,0,0,1-.14-.53v-.09q0-.48,3.6-2.37c3-1.46,5.73-2.88,8.28-4.28a2.17,2.17,0,0,1,1.22-.38c.87,0,1.31.61,1.31,1.81v61.52a6.39,6.39,0,0,0,0,1,3.88,3.88,0,0,0,.14.71,3.44,3.44,0,0,0,.19.53,1.06,1.06,0,0,0,.44.37l.48.29a3.14,3.14,0,0,0,.67.24l.77.19,1.06.14a8.92,8.92,0,0,1,1.2.19A1.76,1.76,0,0,1,541.1,1075.62Z"/><path class="cls-6" d="M588.53,1065.14V1056c0-2.85,0-5.07,0-6.69s0-2.57,0-2.89a1.57,1.57,0,0,0-.71-1.47c-.47-.28-2.42-1.12-5.83-2.51-.82-.31-1.23-.73-1.23-1.23a1.33,1.33,0,0,1,.14-.57,1.12,1.12,0,0,1,.47-.47l.62-.34.76-.33c.31-.12.54-.22.66-.28q10.62-5.12,10.72-5.12h.09c.88,0,1.33.54,1.33,1.61l-.1,3.13q-.18,3.12-.33,8.39t-.14,10.48v3.22a103.62,103.62,0,0,0,.28,10.62,2,2,0,0,0,1.9,1.8,21.26,21.26,0,0,1,3.6.66c.51.19.76.67.76,1.42,0,1.39-.38,2.09-1.14,2.09l-.57,0-1.32-.14-1.9-.19c-.7-.06-1.5-.11-2.42-.14s-1.81,0-2.7,0-1.8,0-2.75,0-1.75.08-2.42.14l-1.84.19-1.33.14-.57,0c-1,0-1.52-.54-1.52-1.61s.21-1.71.62-1.9a24,24,0,0,1,4.22-.76c1.14-.19,1.85-.55,2.13-1.09a5.21,5.21,0,0,0,.43-2.41Zm1-48.25a4.21,4.21,0,0,1,1.42-3.22,4.69,4.69,0,0,1,3.32-1.33,4.54,4.54,0,0,1,3.27,1.33,4.2,4.2,0,0,1,1.37,3.12,4.43,4.43,0,0,1-1.37,3.32,4.94,4.94,0,0,1-6.69,0A4.35,4.35,0,0,1,589.48,1016.89Z"/><path class="cls-6" d="M643.36,1077.47c-1,0-1.53-.77-1.53-2.32a1.16,1.16,0,0,1,.62-1.19,12.11,12.11,0,0,1,2.75-.57,13.33,13.33,0,0,0,1.34-.19,1.51,1.51,0,0,0,.53-.09.87.87,0,0,0,.39-.29,2,2,0,0,1,.24-.29.73.73,0,0,0,.14-.38,3.57,3.57,0,0,0,0-.38,3.52,3.52,0,0,1,.05-.48c0-.25,0-.41,0-.48q.38-5,.38-28a.81.81,0,0,0-.58-.86,11.66,11.66,0,0,0-2.78-.19h-1.83c-1.41,0-2.11-.55-2.11-1.64,0-1.88.7-2.82,2.11-2.82.84-.06,1.8-.09,2.89-.09a8.52,8.52,0,0,0,1.82-.1c.19-.06.29-.31.29-.76v-.09q.29-12.11,4.12-18.83a20,20,0,0,1,7.87-7.52A20.42,20.42,0,0,1,670,1007a7.72,7.72,0,0,1,5.26,1.56,4.6,4.6,0,0,1,1.75,3.46,3.72,3.72,0,0,1-1.09,2.66,3.94,3.94,0,0,1-3,1.14,9.46,9.46,0,0,1-3.93-1.43,9.57,9.57,0,0,0-4.12-1.42q-4.93,0-7.45,6.09t-2.51,15.48v.87a3.62,3.62,0,0,0,.14,1.26c.1.19.37.29.82.29h9.55c1.46,0,2.2.64,2.2,1.91v.09c0,1.89-.86,2.83-2.58,2.83h-9.17a.76.76,0,0,0-.86.86v28.42c0,1.46.64,2.23,1.92,2.29.51.07,1.09.11,1.73.15s1.1,0,1.39,0,.6,0,1,.05a2,2,0,0,1,.76.18,3.43,3.43,0,0,1,.48.33.74.74,0,0,1,.29.5,5.83,5.83,0,0,1,.05.79q0,2-1.62,2l-.58,0-1.29-.14c-.54-.06-1.16-.13-1.86-.19s-1.5-.11-2.39-.14-1.78,0-2.65,0-1.77,0-2.69,0-1.72.08-2.39.14l-1.86.19-1.33.14Z"/><path class="cls-6" d="M708,1057q0-9.9,5.18-15.9a16.05,16.05,0,0,1,12.61-6,17.72,17.72,0,0,1,9.26,2.67,24.7,24.7,0,0,1,7.37,6.66,3.3,3.3,0,0,1,.76,2.09v.19a2.64,2.64,0,0,1-.47,1.53,4.18,4.18,0,0,1-1.5,1.19c-.69.34-1.29.62-1.79.81s-1.23.44-2.2.76l-1.83.57q-19.89,6.87-20.37,7.15a.62.62,0,0,0-.38.57,9.85,9.85,0,0,0,.29,1.91,18,18,0,0,0,1.28,3.53,19.89,19.89,0,0,0,2.48,4A12.46,12.46,0,0,0,723,1072a13.68,13.68,0,0,0,6.2,1.38,16.06,16.06,0,0,0,11.64-4.89,3.61,3.61,0,0,1,2.2-1.36c1.08,0,1.62.47,1.62,1.42a2.73,2.73,0,0,1-.76,1.51,21.91,21.91,0,0,1-7.58,6.31,20.8,20.8,0,0,1-9.58,2.32,18.21,18.21,0,0,1-6.3-1.13,20.78,20.78,0,0,1-6-3.49,16.27,16.27,0,0,1-4.64-6.8A27.87,27.87,0,0,1,708,1057Zm25.89-10.1c0-.83-1.12-2.12-3.34-3.87a11.15,11.15,0,0,0-7-2.62,7.86,7.86,0,0,0-6.82,3.72q-2.52,3.72-2.52,10.2c0,.51.16.77.47.77q.19,0,9.1-3.48t9.2-3.58C733.62,1047.71,733.91,1047.33,733.91,1046.89Z"/><path class="cls-6" d="M867.62,1035.85a40,40,0,0,1,5.31.33,27.84,27.84,0,0,1,3.8.69l1.32.37c.51,0,.76-.28.76-.85v-16.28a2.78,2.78,0,0,0,0-.52c0-.16-.06-.3-.09-.43a1,1,0,0,0-.19-.38,2.89,2.89,0,0,0-.23-.28,2.42,2.42,0,0,0-.42-.28l-.57-.34a4.93,4.93,0,0,0-.75-.33c-.34-.12-.65-.25-.93-.38s-.67-.28-1.17-.47-1-.38-1.41-.57c-1.18-.32-1.78-.82-1.78-1.52,0-.38.29-.75.86-1.13q12.12-5.88,12.5-5.88c.77,0,1.15.44,1.15,1.33,0,.63,0,2.29-.1,5s-.11,6.38-.14,11.07,0,9.8,0,15.34q0,25.89.28,28.44a1.08,1.08,0,0,0,.19.71.69.69,0,0,0,.24.24,1,1,0,0,0,.38.14l.42.09a2.92,2.92,0,0,0,.62,0h.76c.22,0,.52,0,.9,0s.72,0,1,0c1.26,0,1.9.48,1.9,1.43a1.25,1.25,0,0,1-.52,1,14,14,0,0,1-2.19,1.1,26.88,26.88,0,0,0-3.08,1.57,36.13,36.13,0,0,0-3.45,2.12c-1,.72-1.76,1.25-2.21,1.6a2,2,0,0,1-1.06.52c-.51,0-.77-.28-.77-.85v-3.26c0-.2-.09-.3-.28-.3l-.57.4a12.69,12.69,0,0,1-1.41,1,23.42,23.42,0,0,1-2.22,1.18,14.9,14.9,0,0,1-3.22,1,20.27,20.27,0,0,1-4,.4,19.9,19.9,0,0,1-15.34-6.45,22.55,22.55,0,0,1-5.94-15.89,21.46,21.46,0,0,1,5.45-14.59q5.46-6.21,16.17-6.21Zm-.15,3.79q-7.17,0-11.05,4.35t-3.87,11.81q0,8.23,5.48,13t11.33,4.83a14.65,14.65,0,0,0,5.72-1.18c1.86-.79,3-1.79,3.35-3a10.57,10.57,0,0,0,.38-2.18V1045.6a3.17,3.17,0,0,0-1-2.27A14.51,14.51,0,0,0,867.47,1039.64Z"/><path class="cls-6" d="M931.54,1057.18q0-9.81,6.08-16a19.59,19.59,0,0,1,14.45-6.18,19.06,19.06,0,0,1,14.54,6.23q5.79,6.24,5.79,16,0,9.91-6,15.72a20.4,20.4,0,0,1-14.68,5.8,18.62,18.62,0,0,1-14.53-6.23A22,22,0,0,1,931.54,1057.18ZM942.27,1069a11.65,11.65,0,0,0,9.7,4.83,12.2,12.2,0,0,0,9.9-4.83,17.72,17.72,0,0,0,3.9-11.49,18.88,18.88,0,0,0-4.33-12.61q-4.34-5.1-10-5.11-4.75,0-8.8,4.13t-4,12.75Q938.56,1064.21,942.27,1069Z"/><path class="cls-6" d="M1046.94,1073.68a3.35,3.35,0,0,0-.8.52c-.48.35-1.1.76-1.89,1.23a27.61,27.61,0,0,1-2.69,1.42,20.08,20.08,0,0,1-8.12,1.76,14.16,14.16,0,0,1-10-3.7q-4-3.71-4.85-10.33a57.19,57.19,0,0,1-.29-6c0-1.2,0-4,.05-8.39s0-6.78,0-7.15c0-1.21-.87-2.12-2.61-2.75a14.76,14.76,0,0,0-1.44-.48,3.15,3.15,0,0,1-1.26-.57,1.46,1.46,0,0,1-.28-1v-.28c0-.83.35-1.27,1-1.33q9.66-.57,10.13-.57c.64,0,1,.38,1,1.14v19.91c0,4.23.59,7.58,1.79,10.05a13,13,0,0,0,4,4.5,10.32,10.32,0,0,0,6.18,1.94,11.23,11.23,0,0,0,8.22-3.51,4.1,4.1,0,0,1,.51-.61,3.36,3.36,0,0,0,.43-.48,3.1,3.1,0,0,1,.28-.33.8.8,0,0,0,.24-.33,3.54,3.54,0,0,1,.14-.33.86.86,0,0,0,.1-.33v-24.32a2.49,2.49,0,0,0-1.95-2.65,44.15,44.15,0,0,0-4.66-.86,1.54,1.54,0,0,1-1.45-1.61,1.42,1.42,0,0,1,1.32-1.61c2.09-.06,4-.13,5.65-.19l3.5-.14c.67,0,1.24,0,1.71,0h1.09c1,0,1.42.63,1.42,1.9v30.43a1.4,1.4,0,0,0,0,.42.72.72,0,0,0,.2.29,1.47,1.47,0,0,0,.34.24l.59.28c.26.13.55.25.88.38s.75.32,1.27.57,1.08.5,1.67.76a1.21,1.21,0,0,1,.88,1.13,1.87,1.87,0,0,1-.43,1.43,2.66,2.66,0,0,1-1.29.52,21.79,21.79,0,0,0-3.15,1,30.42,30.42,0,0,0-5,2.32,1.87,1.87,0,0,1-1,.38c-.86,0-1.29-.63-1.29-1.9v-2.27C1047.21,1073.8,1047.12,1073.68,1046.94,1073.68Z"/><path class="cls-6" d="M1120.44,1075.62c0,1.23-.39,1.85-1.15,1.85l-.62,0-1.39-.14-1.91-.19c-.7-.06-1.52-.11-2.48-.14s-1.87,0-2.74,0-1.76,0-2.65,0l-2.38.09c-.71,0-1.33.08-1.87.15l-1.29.14-.57,0c-1,0-1.43-.55-1.43-1.66v-.28c0-.8.2-1.31.62-1.52a13,13,0,0,1,3.42-.61,2.79,2.79,0,0,0,2.25-1.09,5.18,5.18,0,0,0,.53-2.62v-49.46a2.82,2.82,0,0,0,0-.52,1.81,1.81,0,0,0-.15-.43,2.16,2.16,0,0,1-.14-.33.68.68,0,0,0-.28-.29l-.38-.23c-.1-.07-.29-.18-.57-.34l-.62-.33c-.63-.38-1.31-.77-2-1.18s-1.23-.72-1.51-.91l-.9-.61a2.21,2.21,0,0,1-.62-.57,1.08,1.08,0,0,1-.14-.53v-.09q0-.48,3.6-2.37,4.46-2.19,8.28-4.28a2.17,2.17,0,0,1,1.22-.38c.87,0,1.31.61,1.31,1.81v61.52a6.39,6.39,0,0,0,0,1,4.31,4.31,0,0,0,.33,1.24,1.06,1.06,0,0,0,.44.37l.48.29a3.14,3.14,0,0,0,.67.24l.77.19,1.06.14a8.92,8.92,0,0,1,1.2.19A1.77,1.77,0,0,1,1120.44,1075.62Z"/><path class="cls-6" d="M1161.6,1043.65q0-2.91,4.56-5.88a18.29,18.29,0,0,1,10.18-3,18.09,18.09,0,0,1,3.67.38,25.8,25.8,0,0,1,4.27,1.34,8.91,8.91,0,0,1,4,3.3,12,12,0,0,1,2,5.69c.12,1.53.19,2.71.19,3.53v18.82a4.91,4.91,0,0,0,.66,2.7,2.86,2.86,0,0,0,1.33,1.26,3.85,3.85,0,0,0,1.33.24,2.87,2.87,0,0,0,2.08-.74,7,7,0,0,0,1.19-1.47,1.18,1.18,0,0,1,1-.73c.57,0,.85.41.85,1.23a8.39,8.39,0,0,1-2.08,5,6.52,6.52,0,0,1-5.4,2.7,6.77,6.77,0,0,1-2.34-.4,5.84,5.84,0,0,1-1.84-1.05c-.49-.43-.94-.84-1.34-1.24a9.48,9.48,0,0,1-1-1.09l-.28-.4c-.06,0-.09,0-.09,0s0,0-.09,0a.28.28,0,0,0-.28.2,4.45,4.45,0,0,1-.66.79A10.76,10.76,0,0,1,1182,1076a16.51,16.51,0,0,1-9.06,2.77A10.55,10.55,0,0,1,1162,1068v-.1a10.28,10.28,0,0,1,4.06-8.62,13.81,13.81,0,0,1,3.67-2,28.35,28.35,0,0,1,4.48-1.38c1.48-.31,2.88-.58,4.2-.8s2.42-.37,3.3-.43l1.33-.09c.51-.12.77-.56.77-1.3v-3.45c0-3.29-.77-5.84-2.29-7.64a7.63,7.63,0,0,0-5.73-2.52q-4.86,0-7.91,6.34a2.74,2.74,0,0,1-2.19,1.12,4.55,4.55,0,0,1-2.83-.94A3,3,0,0,1,1161.6,1043.65Zm13.6,29.61a9.44,9.44,0,0,0,4.15-.94,10.62,10.62,0,0,0,2.72-1.68c.51-.5.92-.94,1.24-1.31a3.52,3.52,0,0,0,.57-2.16v-6.27a11.54,11.54,0,0,0-.14-2.29.73.73,0,0,0-.81-.52,30.17,30.17,0,0,0-6,.75,11.45,11.45,0,0,0-5.67,2.7,6.34,6.34,0,0,0-2.29,5.22c0,2.38.66,4.14,2,5.27A6.06,6.06,0,0,0,1175.2,1073.26Z"/></g></g></svg>